solid box
  facet normal 0.0 0.0 -1.0
    outer loop
      vertex -0.0500 -0.0500 -0.0500
      vertex -0.0500 0.0500 -0.0500
      vertex 0.0500 0.0500 -0.0500
    endloop
  endfacet
  facet normal 0.0 0.0 -1.0
    outer loop
      vertex -0.0500 -0.0500 -0.0500
      vertex 0.0500 0.0500 -0.0500
      vertex 0.0500 -0.0500 -0.0500
    endloop
  endfacet
  facet normal 0.0 0.0 1.0
    outer loop
      vertex -0.0500 -0.0500 0.0500
      vertex 0.0500 -0.0500 0.0500
      vertex 0.0500 0.0500 0.0500
    endloop
  endfacet
  facet normal 0.0 0.0 1.0
    outer loop
      vertex -0.0500 -0.0500 0.0500
      vertex 0.0500 0.0500 0.0500
      vertex -0.0500 0.0500 0.0500
    endloop
  endfacet
  facet normal 0.0 -1.0 0.0
    outer loop
      vertex -0.0500 -0.0500 -0.0500
      vertex 0.0500 -0.0500 -0.0500
      vertex 0.0500 -0.0500 0.0500
    endloop
  endfacet
  facet normal 0.0 -1.0 0.0
    outer loop
      vertex -0.0500 -0.0500 -0.0500
      vertex 0.0500 -0.0500 0.0500
      vertex -0.0500 -0.0500 0.0500
    endloop
  endfacet
  facet normal 0.0 1.0 0.0
    outer loop
      vertex 0.0500 0.0500 -0.0500
      vertex -0.0500 0.0500 -0.0500
      vertex -0.0500 0.0500 0.0500
    endloop
  endfacet
  facet normal 0.0 1.0 0.0
    outer loop
      vertex 0.0500 0.0500 -0.0500
      vertex -0.0500 0.0500 0.0500
      vertex 0.0500 0.0500 0.0500
    endloop
  endfacet
  facet normal 1.0 0.0 0.0
    outer loop
      vertex 0.0500 -0.0500 -0.0500
      vertex 0.0500 0.0500 -0.0500
      vertex 0.0500 0.0500 0.0500
    endloop
  endfacet
  facet normal 1.0 0.0 0.0
    outer loop
      vertex 0.0500 -0.0500 -0.0500
      vertex 0.0500 0.0500 0.0500
      vertex 0.0500 -0.0500 0.0500
    endloop
  endfacet
  facet normal -1.0 0.0 0.0
    outer loop
      vertex -0.0500 -0.0500 -0.0500
      vertex -0.0500 -0.0500 0.0500
      vertex -0.0500 0.0500 0.0500
    endloop
  endfacet
  facet normal -1.0 0.0 0.0
    outer loop
      vertex -0.0500 -0.0500 -0.0500
      vertex -0.0500 0.0500 0.0500
      vertex -0.0500 0.0500 -0.0500
    endloop
  endfacet
endsolid box
