solid center_box
  facet normal 0.0 0.0 -1.0
    outer loop
      vertex -0.2500 -0.2500 -0.2500
      vertex -0.2500 0.2500 -0.2500
      vertex 0.2500 0.2500 -0.2500
    endloop
  endfacet
  facet normal 0.0 0.0 -1.0
    outer loop
      vertex -0.2500 -0.2500 -0.2500
      vertex 0.2500 0.2500 -0.2500
      vertex 0.2500 -0.2500 -0.2500
    endloop
  endfacet
  facet normal 0.0 0.0 1.0
    outer loop
      vertex -0.2500 -0.2500 0.2500
      vertex 0.2500 -0.2500 0.2500
      vertex 0.2500 0.2500 0.2500
    endloop
  endfacet
  facet normal 0.0 0.0 1.0
    outer loop
      vertex -0.2500 -0.2500 0.2500
      vertex 0.2500 0.2500 0.2500
      vertex -0.2500 0.2500 0.2500
    endloop
  endfacet
  facet normal 0.0 -1.0 0.0
    outer loop
      vertex -0.2500 -0.2500 -0.2500
      vertex 0.2500 -0.2500 -0.2500
      vertex 0.2500 -0.2500 0.2500
    endloop
  endfacet
  facet normal 0.0 -1.0 0.0
    outer loop
      vertex -0.2500 -0.2500 -0.2500
      vertex 0.2500 -0.2500 0.2500
      vertex -0.2500 -0.2500 0.2500
    endloop
  endfacet
  facet normal 0.0 1.0 0.0
    outer loop
      vertex 0.2500 0.2500 -0.2500
      vertex -0.2500 0.2500 -0.2500
      vertex -0.2500 0.2500 0.2500
    endloop
  endfacet
  facet normal 0.0 1.0 0.0
    outer loop
      vertex 0.2500 0.2500 -0.2500
      vertex -0.2500 0.2500 0.2500
      vertex 0.2500 0.2500 0.2500
    endloop
  endfacet
  facet normal 1.0 0.0 0.0
    outer loop
      vertex 0.2500 -0.2500 -0.2500
      vertex 0.2500 0.2500 -0.2500
      vertex 0.2500 0.2500 0.2500
    endloop
  endfacet
  facet normal 1.0 0.0 0.0
    outer loop
      vertex 0.2500 -0.2500 -0.2500
      vertex 0.2500 0.2500 0.2500
      vertex 0.2500 -0.2500 0.2500
    endloop
  endfacet
  facet normal -1.0 0.0 0.0
    outer loop
      vertex -0.2500 -0.2500 -0.2500
      vertex -0.2500 -0.2500 0.2500
      vertex -0.2500 0.2500 0.2500
    endloop
  endfacet
  facet normal -1.0 0.0 0.0
    outer loop
      vertex -0.2500 -0.2500 -0.2500
      vertex -0.2500 0.2500 0.2500
      vertex -0.2500 0.2500 -0.2500
    endloop
  endfacet
endsolid center_box
